<?xml version="1.0" standalone="no"?>
<!DOCTYPE svg PUBLIC "-//W3C//DTD SVG 20010904//EN"
 "http://www.w3.org/TR/2001/REC-SVG-20010904/DTD/svg10.dtd">
<svg version="1.0" xmlns="http://www.w3.org/2000/svg"
 width="480.000000pt" height="520.000000pt" viewBox="0 0 480.000000 520.000000"
 preserveAspectRatio="xMidYMid meet">

<g transform="translate(0.000000,520.000000) scale(0.100000,-0.100000)"
fill="#000000" stroke="none">
<path d="M1451 4899 c4 -35 15 -84 23 -108 21 -59 20 -79 -9 -126 -22 -36 -25
-51 -25 -142 l0 -103 -35 -31 c-48 -44 -60 -93 -45 -186 12 -78 12 -78 -34
-136 -27 -35 -31 -47 -36 -130 -5 -81 -9 -97 -35 -136 -27 -41 -30 -52 -31
-130 0 -64 -5 -95 -18 -120 -16 -28 -17 -45 -11 -105 15 -130 12 -152 -19
-185 -23 -24 -28 -38 -28 -79 1 -33 9 -66 24 -94 19 -36 22 -59 23 -139 0 -93
1 -98 34 -145 19 -27 61 -71 93 -97 71 -58 94 -94 108 -167 6 -30 17 -66 23
-80 13 -25 62 -59 72 -49 3 3 -5 28 -17 55 -15 35 -22 69 -22 119 -1 95 31
162 114 241 79 75 92 100 79 148 -13 49 -18 45 -11 -9 5 -46 5 -46 -70 -118
-87 -86 -118 -144 -127 -242 l-7 -70 -11 50 c-24 101 -23 131 4 172 13 21 51
58 82 81 57 41 100 82 88 82 -4 0 -34 -21 -68 -46 -44 -34 -63 -44 -69 -34 -5
8 -9 9 -14 1 -4 -6 -2 -11 4 -11 6 0 8 -5 5 -10 -4 -6 -11 -8 -16 -4 -5 3 -8
2 -7 -3 2 -4 -5 -19 -14 -32 l-17 -23 -5 33 c-15 98 -15 176 0 197 8 12 68 62
132 111 64 49 130 103 146 120 27 28 27 30 7 28 -11 -1 -21 -8 -22 -17 0 -11
-3 -9 -10 5 -9 18 -9 18 -5 -3 4 -19 -9 -33 -72 -80 -42 -31 -101 -75 -130
-99 -29 -24 -54 -43 -55 -43 -5 0 0 150 7 207 7 59 11 65 64 117 32 30 89 78
127 107 73 55 185 164 185 181 0 5 -34 -24 -75 -66 -41 -42 -92 -87 -113 -100
-21 -13 -69 -50 -106 -81 l-67 -57 7 44 c3 23 15 81 26 128 23 98 38 118 163
212 107 81 226 198 221 218 -2 8 -7 32 -11 54 -3 21 -8 36 -11 34 -2 -3 0 -26
5 -52 8 -43 -2 -78 -12 -39 -3 12 -4 10 -3 -4 1 -14 -16 -40 -44 -68 -43 -44
-45 -45 -52 -23 -7 21 -7 21 -5 -3 3 -22 -11 -36 -105 -107 -59 -45 -108 -79
-108 -76 0 25 55 244 66 261 7 12 49 49 91 81 43 33 99 82 124 109 48 51 87
113 71 113 -5 0 -15 -12 -22 -27 -7 -16 -15 -23 -17 -16 -2 7 0 21 6 32 6 11
11 26 11 33 -1 7 -8 -2 -16 -21 -8 -19 -12 -41 -9 -50 8 -21 -56 -85 -68 -68
-6 8 -7 7 -4 -4 6 -18 -25 -46 -117 -109 -48 -32 -49 -32 -43 -9 3 13 11 74
18 134 13 117 25 150 91 248 50 73 95 178 70 163 -6 -3 -16 -23 -23 -44 -6
-20 -37 -75 -68 -121 l-56 -84 -2 104 c-4 130 -14 177 -24 104 -5 -40 -8 -46
-14 -28 -4 13 -11 20 -16 17 -5 -3 -6 -10 -3 -16 5 -7 2 -8 -5 -3 -7 4 -11 16
-8 26 3 10 1 21 -3 24 -5 3 -10 -2 -12 -10 -2 -12 -6 -11 -16 6 -8 11 -9 18
-3 14 7 -4 11 4 10 22 -1 17 -3 21 -6 11 -2 -10 -8 -18 -13 -18 -5 0 -7 7 -4
15 4 8 3 27 -1 43 -7 25 -8 25 -15 7 -20 -48 -14 -63 88 -196 37 -48 37 -49
15 -277 l-5 -63 -29 27 c-22 21 -27 33 -22 54 3 16 0 36 -7 47 -9 15 -10 12
-6 -20 4 -33 3 -37 -10 -27 -8 7 -35 46 -61 86 -25 41 -48 72 -51 69 -9 -8 62
-121 121 -193 l60 -72 -23 -109 c-13 -64 -27 -108 -34 -107 -21 3 -36 17 -30
28 4 6 2 8 -3 5 -11 -7 -28 20 -24 38 2 5 -1 7 -5 2 -11 -11 -44 23 -44 47 0
26 -19 60 -20 36 -1 -12 -3 -12 -14 3 -9 12 -11 29 -6 57 4 22 4 37 -1 35 -4
-3 -10 1 -13 7 -3 7 -5 4 -4 -7 0 -11 -2 -28 -7 -38 -10 -25 27 -92 98 -175
31 -37 60 -77 63 -89 7 -26 -45 -240 -62 -258 -7 -7 -10 -22 -7 -33 2 -11 -2
-55 -11 -97 -9 -42 -16 -90 -16 -106 0 -16 -3 -29 -7 -28 -5 0 -37 33 -72 72
-66 75 -106 141 -96 157 3 5 -1 7 -9 4 -29 -11 20 -94 121 -207 l54 -60 -2
-144 -3 -144 -57 57 c-32 32 -55 62 -52 67 4 6 1 7 -7 2 -9 -6 -24 4 -47 31
-18 21 -33 33 -33 25 0 -7 35 -48 79 -90 109 -106 119 -122 127 -217 l7 -79
-24 21 c-23 19 -41 33 -99 70 -26 17 19 -25 90 -85 22 -18 40 -41 40 -50 0
-11 -35 16 -95 74 -111 105 -126 134 -118 235 5 55 1 74 -21 127 -35 84 -34
126 4 170 34 38 37 64 18 170 -10 62 -9 72 10 117 17 36 22 68 22 128 0 81 12
124 32 112 7 -5 8 -2 4 5 -5 7 0 21 9 31 13 14 18 42 21 105 2 66 8 94 24 121
12 19 26 32 31 28 5 -3 9 -2 8 3 -1 4 0 13 2 18 2 6 3 63 4 127 0 96 3 120 17
134 15 16 16 14 13 -22 -2 -35 -2 -36 5 -9 l7 30 3 -30 c1 -16 2 -37 1 -47 -1
-9 2 -19 7 -22 6 -3 9 17 8 48 0 30 -4 52 -8 49 -15 -9 -8 21 10 40 14 16 17
38 17 127 0 97 2 112 23 139 12 16 22 40 22 53 0 21 2 20 19 -8 11 -18 24 -35
30 -39 6 -3 16 -26 22 -50 10 -39 14 -43 30 -35 19 11 40 69 38 110 -1 20 -2
21 -6 5 -2 -11 -11 -40 -20 -65 l-16 -45 -14 60 c-8 33 -16 86 -20 118 -3 31
-9 57 -14 57 -5 0 -9 -8 -9 -17 -1 -11 -9 -3 -21 20 -11 20 -24 37 -30 37 -8
0 -8 -4 0 -13 6 -8 22 -39 36 -70 21 -49 22 -55 7 -46 -23 14 -53 81 -60 133
l-5 38 45 -33 c25 -19 59 -42 77 -51 21 -11 29 -22 25 -32 -3 -9 -1 -16 6 -16
6 0 8 5 4 12 -5 7 -3 8 6 3 10 -6 10 -11 -4 -20 -15 -11 -15 -13 0 -26 13 -11
15 -11 12 2 -1 7 2 16 7 19 6 3 19 -22 30 -55 14 -41 28 -63 45 -72 14 -7 24
-18 22 -24 -1 -6 2 -8 7 -4 18 11 41 -41 50 -115 8 -60 15 -78 39 -104 16 -17
35 -41 42 -54 21 -43 29 -124 17 -203 -9 -65 -8 -82 6 -117 25 -63 21 -118
-14 -192 -22 -47 -29 -73 -24 -95 3 -16 8 -42 11 -56 6 -27 -15 -73 -82 -179
-38 -60 -41 -84 -19 -137 32 -77 17 -140 -59 -242 -25 -35 -46 -70 -46 -79 0
-17 74 85 111 153 25 44 29 119 10 168 -20 51 -13 92 23 144 73 106 89 159 66
218 -8 22 -4 39 21 98 37 83 41 149 15 212 -15 35 -16 48 -5 103 12 67 7 153
-13 199 -6 15 -27 44 -45 63 -28 31 -34 47 -42 108 -10 82 -28 115 -76 143
-25 15 -36 30 -44 64 -14 56 -57 106 -126 145 -30 17 -69 49 -88 72 l-34 40 8
-63z m48 -2459 c0 -10 -3 -8 -9 5 -12 27 -12 43 0 25 5 -8 9 -22 9 -30z"/>
<path d="M1723 4585 c0 -8 5 -11 10 -8 6 4 8 0 5 -8 -4 -11 1 -15 17 -15 20 0
22 3 13 19 -5 10 -12 16 -15 13 -4 -3 -11 -1 -18 4 -8 7 -12 5 -12 -5z"/>
<path d="M1713 4527 c-3 -6 -1 -7 5 -3 17 10 15 -6 -4 -32 -9 -13 -13 -26 -10
-29 8 -9 13 -2 30 38 13 32 13 36 0 36 -8 0 -18 -5 -21 -10z"/>
<path d="M1864 4306 c12 -30 23 -52 25 -50 5 5 -29 93 -38 99 -5 2 1 -20 13
-49z"/>
<path d="M1834 4300 c6 -59 17 -94 27 -78 5 7 9 20 9 28 0 13 -1 13 -11 0 -8
-12 -10 -10 -5 10 2 14 -1 36 -9 50 -13 25 -14 25 -11 -10z"/>
<path d="M1453 4255 c0 -27 2 -38 4 -22 2 15 2 37 0 50 -2 12 -4 0 -4 -28z"/>
<path d="M1816 4245 c-9 -26 -7 -32 5 -12 6 10 9 21 6 23 -2 3 -7 -2 -11 -11z"/>
<path d="M1472 4205 c0 -16 2 -22 5 -12 2 9 2 23 0 30 -3 6 -5 -1 -5 -18z"/>
<path d="M1780 4166 c-15 -42 -11 -55 6 -17 8 19 12 36 9 39 -2 3 -9 -7 -15
-22z"/>
<path d="M1547 4090 c3 -11 10 -23 16 -27 7 -4 8 0 4 11 -4 10 -7 22 -7 27 0
5 -4 9 -9 9 -5 0 -7 -9 -4 -20z"/>
<path d="M1380 4005 c0 -5 5 -17 10 -25 5 -8 10 -10 10 -5 0 6 -5 17 -10 25
-5 8 -10 11 -10 5z"/>
<path d="M1792 3930 c0 -14 2 -19 5 -12 2 6 2 18 0 25 -3 6 -5 1 -5 -13z"/>
<path d="M1422 3920 c0 -14 2 -19 5 -12 2 6 2 18 0 25 -3 6 -5 1 -5 -13z"/>
<path d="M1747 3874 c-4 -4 -7 -14 -7 -23 0 -11 3 -12 11 -4 6 6 10 16 7 23
-2 6 -7 8 -11 4z"/>
<path d="M1500 3809 c0 -5 5 -7 10 -4 6 3 10 8 10 11 0 2 -4 4 -10 4 -5 0 -10
-5 -10 -11z"/>
<path d="M1260 3722 c0 -7 5 -23 11 -35 16 -32 112 -157 119 -157 4 0 7 15 7
33 1 22 -1 27 -6 14 -7 -18 -8 -18 -21 -2 -8 10 -21 34 -27 54 -7 20 -11 26
-9 13 6 -33 -10 -18 -44 41 -16 29 -30 46 -30 39z"/>
<path d="M1822 3695 c0 -16 2 -22 5 -12 2 9 2 23 0 30 -3 6 -5 -1 -5 -18z"/>
<path d="M1290 3701 c0 -5 5 -13 10 -16 6 -3 10 -2 10 4 0 5 -4 13 -10 16 -5
3 -10 2 -10 -4z"/>
<path d="M1841 3694 c0 -11 3 -14 6 -6 3 7 2 16 -1 19 -3 4 -6 -2 -5 -13z"/>
<path d="M1677 3553 c-4 -3 -7 -11 -7 -17 0 -6 5 -5 12 2 6 6 9 14 7 17 -3 3
-9 2 -12 -2z"/>
<path d="M1751 3364 c0 -11 3 -14 6 -6 3 7 2 16 -1 19 -3 4 -6 -2 -5 -13z"/>
<path d="M1625 3210 c-3 -5 -1 -10 4 -10 6 0 11 5 11 10 0 6 -2 10 -4 10 -3 0
-8 -4 -11 -10z"/>
<path d="M1510 2884 c0 -8 5 -12 10 -9 6 3 10 10 10 16 0 5 -4 9 -10 9 -5 0
-10 -7 -10 -16z"/>
<path d="M1350 2771 c0 -6 4 -13 10 -16 6 -3 7 1 4 9 -7 18 -14 21 -14 7z"/>
</g>
</svg>
