<svg width="228" height="114" viewBox="0 0 228 114" fill="none" xmlns="http://www.w3.org/2000/svg">
<path id="Ellipse 2320" d="M9.9662e-06 -1.99324e-05C8.65742e-06 14.9707 2.94871 29.7948 8.67774 43.6259C14.4068 57.457 22.804 70.0243 33.3898 80.6102C43.9757 91.196 56.543 99.5932 70.3741 105.322C84.2052 111.051 99.0293 114 114 114C128.971 114 143.795 111.051 157.626 105.322C171.457 99.5932 184.024 91.196 194.61 80.6102C205.196 70.0243 213.593 57.457 219.322 43.6259C225.051 29.7948 228 14.9707 228 -7.62939e-06L180.664 -1.17676e-05C180.664 8.75447 178.94 17.4232 175.59 25.5113C172.24 33.5994 167.329 40.9484 161.139 47.1388C154.948 53.3291 147.599 58.2396 139.511 61.5898C131.423 64.94 122.754 66.6643 114 66.6643C105.246 66.6643 96.5768 64.94 88.4887 61.5898C80.4006 58.2396 73.0516 53.3291 66.8612 47.1388C60.6709 40.9484 55.7604 33.5994 52.4102 25.5113C49.06 17.4232 47.3357 8.75446 47.3357 -1.57942e-05L9.9662e-06 -1.99324e-05Z" fill="#90BE6D"/>
</svg>
