<svg width="222" height="179" viewBox="0 0 222 179" fill="none" xmlns="http://www.w3.org/2000/svg">
<path d="M191 98C191 84.3351 187.5 70.8979 180.833 58.9696C174.166 47.0413 164.555 37.0196 152.916 29.8599C141.277 22.7002 127.997 18.6412 114.344 18.0699C100.691 17.4987 87.1197 20.4341 74.9232 26.5965L95.2164 66.761C100.552 64.0649 106.49 62.7807 112.463 63.0306C118.436 63.2805 124.246 65.0563 129.338 68.1887C134.43 71.3211 138.635 75.7056 141.552 80.9242C144.469 86.1428 146 92.0216 146 98H191Z" fill="#9ADE44" stroke="white"/>
<path d="M74.9232 26.5965C65.3002 31.4585 56.7594 38.2154 49.8136 46.4614C42.8679 54.7074 37.6605 64.2722 34.5045 74.5814C31.3484 84.8905 30.3087 95.7313 31.4478 106.452C32.5869 117.173 35.8813 127.554 41.1332 136.97C46.385 146.385 53.4859 154.642 62.0093 161.245C70.5327 167.847 80.3027 172.659 90.7324 175.39C101.162 178.122 112.036 178.717 122.702 177.14C133.367 175.563 143.604 171.846 152.797 166.213L129.286 127.843C125.264 130.308 120.786 131.934 116.12 132.624C111.453 133.314 106.696 133.053 102.133 131.858C97.5699 130.663 93.2955 128.558 89.5666 125.67C85.8376 122.781 82.731 119.169 80.4333 115.049C78.1356 110.93 76.6943 106.388 76.1959 101.698C75.6975 97.0074 76.1524 92.2646 77.5332 87.7544C78.914 83.2441 81.1922 79.0595 84.231 75.4519C87.2697 71.8443 91.0064 68.8881 95.2164 66.761L74.9232 26.5965Z" fill="#9ADE44" stroke="white"/>
<path d="M152.797 166.213C164.469 159.061 174.11 149.034 180.799 137.091C187.488 125.148 191 111.689 191 98H146C146 103.989 144.463 109.877 141.537 115.102C138.611 120.327 134.393 124.714 129.286 127.843L152.797 166.213Z" fill="#9ADE44" stroke="white"/>
<path d="M152.916 29.8599L163.395 12.8249" stroke="#9ADE44"/>
<path d="M167.025 12.9442C166.525 12.9442 166.075 12.8448 165.674 12.6459C165.274 12.447 164.953 12.1743 164.711 11.8277C164.47 11.4811 164.338 11.0862 164.315 10.6431H165.338C165.378 11.0379 165.557 11.3646 165.875 11.6232C166.196 11.8788 166.579 12.0067 167.025 12.0067C167.383 12.0067 167.701 11.9229 167.98 11.7553C168.261 11.5877 168.481 11.3575 168.64 11.0649C168.802 10.7695 168.883 10.4357 168.883 10.0635C168.883 9.68283 168.799 9.34334 168.632 9.04504C168.467 8.74391 168.24 8.50669 167.95 8.33339C167.66 8.1601 167.329 8.07203 166.957 8.06919C166.69 8.06635 166.416 8.10754 166.135 8.19277C165.853 8.27515 165.622 8.38169 165.44 8.51237L164.451 8.39305L164.98 4.0976H169.514V5.0351H165.866L165.559 7.60896H165.611C165.79 7.46692 166.014 7.34902 166.284 7.25527C166.554 7.16152 166.835 7.11464 167.128 7.11464C167.662 7.11464 168.138 7.24248 168.555 7.49817C168.976 7.75101 169.305 8.0976 169.544 8.53794C169.785 8.97828 169.906 9.48112 169.906 10.0465C169.906 10.6033 169.781 11.1004 169.531 11.5379C169.284 11.9726 168.943 12.3163 168.508 12.5692C168.074 12.8192 167.579 12.9442 167.025 12.9442ZM174.394 12.9442C173.809 12.9442 173.292 12.8405 172.843 12.6331C172.397 12.4229 172.049 12.1345 171.799 11.7681C171.549 11.3987 171.426 10.9783 171.428 10.5067C171.426 10.1374 171.498 9.79646 171.646 9.48396C171.793 9.16862 171.995 8.90584 172.251 8.69561C172.509 8.48254 172.798 8.3476 173.116 8.29078V8.23964C172.698 8.13169 172.366 7.89731 172.119 7.53652C171.872 7.17288 171.749 6.75953 171.752 6.29646C171.749 5.85328 171.862 5.45697 172.089 5.10754C172.316 4.75811 172.629 4.48254 173.026 4.28084C173.427 4.07913 173.883 3.97828 174.394 3.97828C174.9 3.97828 175.352 4.07913 175.749 4.28084C176.147 4.48254 176.46 4.75811 176.687 5.10754C176.917 5.45697 177.033 5.85328 177.036 6.29646C177.033 6.75953 176.907 7.17288 176.657 7.53652C176.41 7.89731 176.082 8.13169 175.673 8.23964V8.29078C175.988 8.3476 176.272 8.48254 176.525 8.69561C176.778 8.90584 176.979 9.16862 177.13 9.48396C177.281 9.79646 177.357 10.1374 177.36 10.5067C177.357 10.9783 177.229 11.3987 176.977 11.7681C176.727 12.1345 176.379 12.4229 175.933 12.6331C175.489 12.8405 174.977 12.9442 174.394 12.9442ZM174.394 12.0067C174.789 12.0067 175.13 11.9428 175.417 11.8149C175.704 11.6871 175.926 11.5067 176.082 11.2737C176.238 11.0408 176.318 10.7681 176.32 10.4556C176.318 10.126 176.232 9.83481 176.065 9.58197C175.897 9.32913 175.668 9.13027 175.379 8.98538C175.092 8.8405 174.764 8.76805 174.394 8.76805C174.022 8.76805 173.69 8.8405 173.397 8.98538C173.107 9.13027 172.879 9.32913 172.711 9.58197C172.546 9.83481 172.465 10.126 172.468 10.4556C172.465 10.7681 172.541 11.0408 172.694 11.2737C172.85 11.5067 173.073 11.6871 173.363 11.8149C173.653 11.9428 173.997 12.0067 174.394 12.0067ZM174.394 7.86464C174.707 7.86464 174.984 7.80214 175.225 7.67714C175.47 7.55214 175.661 7.37743 175.801 7.153C175.94 6.92856 176.011 6.66578 176.014 6.36464C176.011 6.06919 175.941 5.81209 175.805 5.59334C175.668 5.37175 175.479 5.20129 175.238 5.08197C174.997 4.95981 174.715 4.89873 174.394 4.89873C174.068 4.89873 173.782 4.95981 173.538 5.08197C173.293 5.20129 173.104 5.37175 172.971 5.59334C172.837 5.81209 172.772 6.06919 172.775 6.36464C172.772 6.66578 172.839 6.92856 172.975 7.153C173.114 7.37743 173.306 7.55214 173.551 7.67714C173.795 7.80214 174.076 7.86464 174.394 7.86464ZM181.721 12.9442C181.221 12.9442 180.77 12.8448 180.37 12.6459C179.969 12.447 179.648 12.1743 179.407 11.8277C179.165 11.4811 179.033 11.0862 179.01 10.6431H180.033C180.073 11.0379 180.252 11.3646 180.57 11.6232C180.891 11.8788 181.275 12.0067 181.721 12.0067C182.079 12.0067 182.397 11.9229 182.675 11.7553C182.956 11.5877 183.177 11.3575 183.336 11.0649C183.498 10.7695 183.579 10.4357 183.579 10.0635C183.579 9.68283 183.495 9.34334 183.327 9.04504C183.162 8.74391 182.935 8.50669 182.645 8.33339C182.356 8.1601 182.025 8.07203 181.652 8.06919C181.385 8.06635 181.111 8.10754 180.83 8.19277C180.549 8.27515 180.317 8.38169 180.135 8.51237L179.147 8.39305L179.675 4.0976H184.209V5.0351H180.562L180.255 7.60896H180.306C180.485 7.46692 180.709 7.34902 180.979 7.25527C181.249 7.16152 181.53 7.11464 181.823 7.11464C182.357 7.11464 182.833 7.24248 183.25 7.49817C183.671 7.75101 184 8.0976 184.239 8.53794C184.481 8.97828 184.601 9.48112 184.601 10.0465C184.601 10.6033 184.476 11.1004 184.226 11.5379C183.979 11.9726 183.638 12.3163 183.204 12.5692C182.769 12.8192 182.275 12.9442 181.721 12.9442Z" fill="#9ADE44"/>
<path d="M41.1331 136.97L23.6665 146.712" stroke="#9ADE44"/>
<path d="M5.29359 137.865C5.65154 137.868 6.0095 137.936 6.36745 138.07C6.72541 138.203 7.05211 138.425 7.34757 138.735C7.64302 139.041 7.88024 139.461 8.05921 139.992C8.23819 140.523 8.32768 141.189 8.32768 141.99C8.32768 142.766 8.25382 143.455 8.10609 144.057C7.9612 144.657 7.75098 145.162 7.47541 145.574C7.20268 145.986 6.87029 146.299 6.47825 146.512C6.08904 146.725 5.6487 146.831 5.15723 146.831C4.66859 146.831 4.23251 146.735 3.84899 146.541C3.4683 146.345 3.1558 146.074 2.91149 145.728C2.67001 145.378 2.51518 144.973 2.447 144.513H3.48677C3.58052 144.914 3.7666 145.245 4.04501 145.506C4.32626 145.764 4.697 145.894 5.15723 145.894C5.83052 145.894 6.36177 145.6 6.75098 145.012C7.14302 144.424 7.33904 143.593 7.33904 142.519H7.27086C7.11177 142.757 6.92285 142.963 6.7041 143.137C6.48535 143.31 6.24245 143.443 5.97541 143.537C5.70836 143.631 5.42427 143.678 5.12313 143.678C4.62313 143.678 4.16433 143.554 3.74671 143.307C3.33194 143.057 2.99955 142.715 2.74955 142.28C2.5024 141.843 2.37882 141.343 2.37882 140.78C2.37882 140.246 2.49813 139.757 2.73677 139.314C2.97825 138.868 3.31632 138.513 3.75098 138.249C4.18848 137.985 4.70268 137.857 5.29359 137.865ZM5.29359 138.803C4.93563 138.803 4.61319 138.892 4.32626 139.071C4.04217 139.247 3.81632 139.486 3.6487 139.787C3.48393 140.086 3.40154 140.416 3.40154 140.78C3.40154 141.144 3.48109 141.475 3.64018 141.773C3.80211 142.068 4.02228 142.304 4.30069 142.48C4.58194 142.654 4.90154 142.74 5.2595 142.74C5.52938 142.74 5.7808 142.688 6.01376 142.583C6.24671 142.475 6.44984 142.328 6.62313 142.144C6.79927 141.956 6.93705 141.745 7.03649 141.509C7.13592 141.27 7.18563 141.022 7.18563 140.763C7.18563 140.422 7.10325 140.103 6.93848 139.804C6.77654 139.506 6.55211 139.264 6.26518 139.08C5.98109 138.895 5.65723 138.803 5.29359 138.803ZM10.0035 146.712V145.945L12.8841 142.791C13.2222 142.422 13.5006 142.101 13.7194 141.828C13.9381 141.553 14.1001 141.294 14.2052 141.053C14.3131 140.809 14.3671 140.553 14.3671 140.286C14.3671 139.979 14.2932 139.713 14.1455 139.489C14.0006 139.264 13.8018 139.091 13.5489 138.969C13.2961 138.847 13.012 138.786 12.6966 138.786C12.3614 138.786 12.0688 138.855 11.8188 138.995C11.5716 139.131 11.3799 139.323 11.2435 139.57C11.11 139.817 11.0432 140.107 11.0432 140.439H10.0376C10.0376 139.928 10.1554 139.479 10.3912 139.093C10.627 138.706 10.9481 138.405 11.3543 138.189C11.7634 137.973 12.2222 137.865 12.7307 137.865C13.2421 137.865 13.6952 137.973 14.0901 138.189C14.485 138.405 14.7947 138.696 15.0191 139.063C15.2435 139.429 15.3557 139.837 15.3557 140.286C15.3557 140.607 15.2975 140.921 15.181 141.228C15.0674 141.532 14.8685 141.871 14.5844 142.246C14.3032 142.618 13.9126 143.073 13.4126 143.61L11.4523 145.706V145.774H15.5091V146.712H10.0035ZM19.9964 146.831C19.4964 146.831 19.0461 146.732 18.6455 146.533C18.2449 146.334 17.9239 146.061 17.6824 145.715C17.441 145.368 17.3089 144.973 17.2861 144.53H18.3089C18.3486 144.925 18.5276 145.252 18.8458 145.51C19.1668 145.766 19.5503 145.894 19.9964 145.894C20.3543 145.894 20.6725 145.81 20.9509 145.642C21.2322 145.475 21.4523 145.245 21.6114 144.952C21.7733 144.657 21.8543 144.323 21.8543 143.951C21.8543 143.57 21.7705 143.23 21.6029 142.932C21.4381 142.631 21.2108 142.394 20.9211 142.22C20.6313 142.047 20.3003 141.959 19.9282 141.956C19.6611 141.953 19.387 141.995 19.1057 142.08C18.8245 142.162 18.5929 142.269 18.4111 142.399L17.4225 142.28L17.9509 137.985H22.485V138.922H18.8373L18.5304 141.496H18.5816C18.7606 141.354 18.985 141.236 19.2549 141.142C19.5248 141.049 19.806 141.002 20.0986 141.002C20.6327 141.002 21.1086 141.13 21.5262 141.385C21.9466 141.638 22.2762 141.985 22.5148 142.425C22.7563 142.865 22.877 143.368 22.877 143.934C22.877 144.49 22.752 144.987 22.502 145.425C22.2549 145.86 21.914 146.203 21.4793 146.456C21.0447 146.706 20.5503 146.831 19.9964 146.831Z" fill="#9ADE44"/>
<path d="M180.799 137.091L198.249 146.864" stroke="#9ADE44"/>
<path d="M199.152 146.864V146.097L202.033 142.944C202.371 142.574 202.649 142.253 202.868 141.981C203.087 141.705 203.249 141.446 203.354 141.205C203.462 140.961 203.516 140.705 203.516 140.438C203.516 140.131 203.442 139.865 203.294 139.641C203.149 139.417 202.95 139.243 202.697 139.121C202.445 138.999 202.16 138.938 201.845 138.938C201.51 138.938 201.217 139.007 200.967 139.147C200.72 139.283 200.528 139.475 200.392 139.722C200.258 139.969 200.192 140.259 200.192 140.591H199.186C199.186 140.08 199.304 139.631 199.54 139.245C199.776 138.858 200.097 138.557 200.503 138.341C200.912 138.125 201.371 138.017 201.879 138.017C202.391 138.017 202.844 138.125 203.239 138.341C203.633 138.557 203.943 138.848 204.168 139.215C204.392 139.581 204.504 139.989 204.504 140.438C204.504 140.759 204.446 141.073 204.33 141.38C204.216 141.684 204.017 142.023 203.733 142.398C203.452 142.77 203.061 143.225 202.561 143.762L200.601 145.858V145.927H204.658V146.864H199.152ZM209.196 138.017C209.554 138.02 209.912 138.088 210.27 138.222C210.628 138.356 210.955 138.577 211.25 138.887C211.545 139.194 211.783 139.613 211.962 140.144C212.141 140.675 212.23 141.341 212.23 142.142C212.23 142.918 212.156 143.607 212.008 144.209C211.864 144.809 211.653 145.314 211.378 145.726C211.105 146.138 210.773 146.451 210.381 146.664C209.991 146.877 209.551 146.983 209.06 146.983C208.571 146.983 208.135 146.887 207.751 146.694C207.371 146.498 207.058 146.226 206.814 145.88C206.572 145.53 206.418 145.125 206.349 144.665H207.389C207.483 145.066 207.669 145.397 207.947 145.658C208.229 145.917 208.599 146.046 209.06 146.046C209.733 146.046 210.264 145.752 210.653 145.164C211.045 144.576 211.241 143.745 211.241 142.671H211.173C211.014 142.909 210.825 143.115 210.606 143.289C210.388 143.462 210.145 143.596 209.878 143.689C209.611 143.783 209.327 143.83 209.026 143.83C208.526 143.83 208.067 143.706 207.649 143.459C207.234 143.209 206.902 142.867 206.652 142.432C206.405 141.995 206.281 141.495 206.281 140.932C206.281 140.398 206.401 139.909 206.639 139.466C206.881 139.02 207.219 138.665 207.653 138.401C208.091 138.137 208.605 138.009 209.196 138.017ZM209.196 138.955C208.838 138.955 208.516 139.044 208.229 139.223C207.945 139.4 207.719 139.638 207.551 139.939C207.386 140.238 207.304 140.569 207.304 140.932C207.304 141.296 207.383 141.627 207.543 141.925C207.705 142.221 207.925 142.456 208.203 142.632C208.484 142.806 208.804 142.892 209.162 142.892C209.432 142.892 209.683 142.84 209.916 142.735C210.149 142.627 210.352 142.481 210.526 142.296C210.702 142.108 210.839 141.897 210.939 141.661C211.038 141.422 211.088 141.174 211.088 140.915C211.088 140.574 211.006 140.255 210.841 139.956C210.679 139.658 210.455 139.417 210.168 139.232C209.883 139.047 209.56 138.955 209.196 138.955ZM216.855 146.983C216.292 146.983 215.791 146.887 215.35 146.694C214.913 146.5 214.565 146.232 214.306 145.888C214.051 145.542 213.912 145.14 213.889 144.682H214.963C214.985 144.963 215.082 145.206 215.252 145.411C215.423 145.613 215.646 145.769 215.921 145.88C216.197 145.99 216.502 146.046 216.838 146.046C217.213 146.046 217.545 145.981 217.835 145.85C218.125 145.719 218.352 145.537 218.517 145.304C218.681 145.071 218.764 144.802 218.764 144.495C218.764 144.174 218.684 143.891 218.525 143.647C218.366 143.4 218.133 143.206 217.826 143.067C217.519 142.928 217.144 142.858 216.701 142.858H216.002V141.921H216.701C217.048 141.921 217.352 141.858 217.613 141.733C217.877 141.608 218.083 141.432 218.231 141.205C218.382 140.978 218.457 140.711 218.457 140.404C218.457 140.108 218.392 139.851 218.261 139.632C218.13 139.414 217.946 139.243 217.707 139.121C217.471 138.999 217.193 138.938 216.872 138.938C216.571 138.938 216.287 138.993 216.019 139.104C215.755 139.212 215.539 139.37 215.372 139.577C215.204 139.782 215.113 140.029 215.099 140.319H214.076C214.093 139.861 214.231 139.461 214.49 139.117C214.748 138.77 215.086 138.5 215.504 138.307C215.924 138.114 216.386 138.017 216.889 138.017C217.429 138.017 217.892 138.127 218.278 138.346C218.664 138.561 218.961 138.847 219.169 139.202C219.376 139.557 219.48 139.941 219.48 140.353C219.48 140.844 219.35 141.263 219.092 141.61C218.836 141.956 218.488 142.196 218.048 142.33V142.398C218.599 142.489 219.029 142.723 219.339 143.101C219.649 143.476 219.804 143.941 219.804 144.495C219.804 144.969 219.674 145.395 219.416 145.773C219.16 146.148 218.811 146.444 218.367 146.659C217.924 146.875 217.42 146.983 216.855 146.983Z" fill="#9ADE44"/>
</svg>
